<?xml version="1.0" encoding="utf-8"?>
<!-- Generator: Adobe Illustrator 17.1.0, SVG Export Plug-In . SVG Version: 6.00 Build 0)  -->
<!DOCTYPE svg PUBLIC "-//W3C//DTD SVG 1.1//EN" "http://www.w3.org/Graphics/SVG/1.1/DTD/svg11.dtd">
<svg version="1.1" id="Layer_1" xmlns="http://www.w3.org/2000/svg" xmlns:xlink="http://www.w3.org/1999/xlink" x="0px" y="0px"
	 viewBox="5.299 379 127 42" enable-background="new 5.299 379 127 42" xml:space="preserve">
<g>
	<path fill="#FFFFFF" d="M111.02,420.278V400h20.279c0-11.199-9.08-20.279-20.279-20.279c-11.2,0-20.278,9.079-20.278,20.279
		C90.742,411.199,99.82,420.278,111.02,420.278z"/>
	<path fill="#FFFFFF" d="M48.521,420.298h20.287c0.005,0,0.009,0.002,0.013,0.002c0.004,0,0.008-0.002,0.012-0.002h20.288V400
		c0-11.104-8.917-20.121-19.979-20.292V379.7H48.521v20.274c0,0.008-0.001,0.017-0.001,0.027c0,0.008,0.001,0.016,0.001,0.023
		V420.298z"/>
	<circle fill="#FFFFFF" cx="26.6" cy="400" r="20.301"/>
</g>
</svg>
